<mxfile host="app.diagrams.net" modified="2023-06-03T22:06:10.700Z" agent="Mozilla/5.0 (Windows NT 10.0; Win64; x64) AppleWebKit/537.36 (KHTML, like Gecko) Chrome/112.0.0.0 Safari/537.36 OPR/98.0.0.0" etag="YZH3zPeebslHilH9GHad" version="21.3.7" type="github">
  <diagram name="Page-1" id="XG5NJ5yo7xh615-TTS8y">
    <mxGraphModel dx="1800" dy="738" grid="1" gridSize="10" guides="1" tooltips="1" connect="1" arrows="1" fold="1" page="1" pageScale="1" pageWidth="850" pageHeight="1100" math="0" shadow="0">
      <root>
        <mxCell id="0" />
        <mxCell id="1" parent="0" />
        <mxCell id="Czd1FP9L7ooU556nrYqR-18" style="edgeStyle=orthogonalEdgeStyle;rounded=0;orthogonalLoop=1;jettySize=auto;html=1;exitX=0.5;exitY=0;exitDx=0;exitDy=0;entryX=0.07;entryY=0.4;entryDx=0;entryDy=0;entryPerimeter=0;" edge="1" parent="1" source="Czd1FP9L7ooU556nrYqR-1" target="Czd1FP9L7ooU556nrYqR-14">
          <mxGeometry relative="1" as="geometry">
            <mxPoint x="320" y="200" as="targetPoint" />
            <Array as="points">
              <mxPoint x="310" y="132" />
            </Array>
          </mxGeometry>
        </mxCell>
        <mxCell id="Czd1FP9L7ooU556nrYqR-19" style="edgeStyle=orthogonalEdgeStyle;rounded=0;orthogonalLoop=1;jettySize=auto;html=1;exitX=0;exitY=0.75;exitDx=0;exitDy=0;entryX=0.5;entryY=0;entryDx=0;entryDy=0;" edge="1" parent="1" source="Czd1FP9L7ooU556nrYqR-1" target="Czd1FP9L7ooU556nrYqR-2">
          <mxGeometry relative="1" as="geometry" />
        </mxCell>
        <mxCell id="Czd1FP9L7ooU556nrYqR-1" value="&lt;font style=&quot;font-size: 18px;&quot;&gt;Router&lt;/font&gt;" style="rounded=1;whiteSpace=wrap;html=1;" vertex="1" parent="1">
          <mxGeometry x="250" y="280" width="120" height="60" as="geometry" />
        </mxCell>
        <mxCell id="Czd1FP9L7ooU556nrYqR-2" value="&lt;font style=&quot;font-size: 14px;&quot;&gt;MQTT Broker&lt;/font&gt;" style="rounded=1;whiteSpace=wrap;html=1;" vertex="1" parent="1">
          <mxGeometry x="160" y="440" width="120" height="60" as="geometry" />
        </mxCell>
        <mxCell id="Czd1FP9L7ooU556nrYqR-20" style="edgeStyle=orthogonalEdgeStyle;rounded=0;orthogonalLoop=1;jettySize=auto;html=1;exitX=0.5;exitY=0;exitDx=0;exitDy=0;entryX=0;entryY=0.25;entryDx=0;entryDy=0;" edge="1" parent="1" source="Czd1FP9L7ooU556nrYqR-3" target="Czd1FP9L7ooU556nrYqR-1">
          <mxGeometry relative="1" as="geometry" />
        </mxCell>
        <mxCell id="Czd1FP9L7ooU556nrYqR-3" value="&lt;font style=&quot;font-size: 14px;&quot;&gt;Server&lt;/font&gt;" style="rounded=1;whiteSpace=wrap;html=1;" vertex="1" parent="1">
          <mxGeometry x="40" y="440" width="120" height="60" as="geometry" />
        </mxCell>
        <mxCell id="Czd1FP9L7ooU556nrYqR-4" value="&lt;font style=&quot;font-size: 14px;&quot;&gt;Raspberry Pi&lt;/font&gt;" style="rounded=1;whiteSpace=wrap;html=1;" vertex="1" parent="1">
          <mxGeometry x="40" y="500" width="240" height="60" as="geometry" />
        </mxCell>
        <mxCell id="Czd1FP9L7ooU556nrYqR-12" style="edgeStyle=orthogonalEdgeStyle;rounded=0;orthogonalLoop=1;jettySize=auto;html=1;exitX=0.5;exitY=0;exitDx=0;exitDy=0;entryX=1;entryY=0.833;entryDx=0;entryDy=0;entryPerimeter=0;" edge="1" parent="1" source="Czd1FP9L7ooU556nrYqR-5" target="Czd1FP9L7ooU556nrYqR-1">
          <mxGeometry relative="1" as="geometry">
            <mxPoint x="479.6363636363635" y="320" as="targetPoint" />
          </mxGeometry>
        </mxCell>
        <mxCell id="Czd1FP9L7ooU556nrYqR-5" value="&lt;font style=&quot;font-size: 14px;&quot;&gt;ESP8266&lt;/font&gt;" style="rounded=1;whiteSpace=wrap;html=1;" vertex="1" parent="1">
          <mxGeometry x="420" y="440" width="120" height="60" as="geometry" />
        </mxCell>
        <mxCell id="Czd1FP9L7ooU556nrYqR-13" style="edgeStyle=orthogonalEdgeStyle;rounded=0;orthogonalLoop=1;jettySize=auto;html=1;exitX=0.5;exitY=0;exitDx=0;exitDy=0;entryX=1;entryY=0.25;entryDx=0;entryDy=0;" edge="1" parent="1" source="Czd1FP9L7ooU556nrYqR-6" target="Czd1FP9L7ooU556nrYqR-1">
          <mxGeometry relative="1" as="geometry" />
        </mxCell>
        <mxCell id="Czd1FP9L7ooU556nrYqR-6" value="&lt;font style=&quot;font-size: 14px;&quot;&gt;ESP8266&lt;/font&gt;" style="rounded=1;whiteSpace=wrap;html=1;" vertex="1" parent="1">
          <mxGeometry x="600" y="440" width="120" height="60" as="geometry" />
        </mxCell>
        <mxCell id="Czd1FP9L7ooU556nrYqR-9" style="edgeStyle=orthogonalEdgeStyle;rounded=0;orthogonalLoop=1;jettySize=auto;html=1;exitX=0.5;exitY=0;exitDx=0;exitDy=0;entryX=0.5;entryY=1;entryDx=0;entryDy=0;" edge="1" parent="1" source="Czd1FP9L7ooU556nrYqR-7" target="Czd1FP9L7ooU556nrYqR-5">
          <mxGeometry relative="1" as="geometry" />
        </mxCell>
        <mxCell id="Czd1FP9L7ooU556nrYqR-7" value="&lt;font style=&quot;font-size: 14px;&quot;&gt;Sensors&lt;/font&gt;" style="rounded=1;whiteSpace=wrap;html=1;" vertex="1" parent="1">
          <mxGeometry x="437.5" y="540" width="85" height="50" as="geometry" />
        </mxCell>
        <mxCell id="Czd1FP9L7ooU556nrYqR-10" style="edgeStyle=orthogonalEdgeStyle;rounded=0;orthogonalLoop=1;jettySize=auto;html=1;exitX=0.5;exitY=0;exitDx=0;exitDy=0;entryX=0.5;entryY=1;entryDx=0;entryDy=0;" edge="1" parent="1" source="Czd1FP9L7ooU556nrYqR-8" target="Czd1FP9L7ooU556nrYqR-6">
          <mxGeometry relative="1" as="geometry" />
        </mxCell>
        <mxCell id="Czd1FP9L7ooU556nrYqR-8" value="&lt;font style=&quot;font-size: 14px;&quot;&gt;Sensors&lt;/font&gt;" style="rounded=1;whiteSpace=wrap;html=1;" vertex="1" parent="1">
          <mxGeometry x="617.5" y="540" width="85" height="50" as="geometry" />
        </mxCell>
        <mxCell id="Czd1FP9L7ooU556nrYqR-17" style="edgeStyle=orthogonalEdgeStyle;rounded=0;orthogonalLoop=1;jettySize=auto;html=1;exitX=0.875;exitY=0.5;exitDx=0;exitDy=0;exitPerimeter=0;entryX=0;entryY=0.5;entryDx=0;entryDy=0;" edge="1" parent="1" source="Czd1FP9L7ooU556nrYqR-14" target="Czd1FP9L7ooU556nrYqR-15">
          <mxGeometry relative="1" as="geometry" />
        </mxCell>
        <mxCell id="Czd1FP9L7ooU556nrYqR-14" value="&lt;font style=&quot;font-size: 18px;&quot;&gt;Internet&lt;/font&gt;" style="ellipse;shape=cloud;whiteSpace=wrap;html=1;" vertex="1" parent="1">
          <mxGeometry x="350" y="100" width="120" height="80" as="geometry" />
        </mxCell>
        <mxCell id="Czd1FP9L7ooU556nrYqR-15" value="&lt;font style=&quot;font-size: 18px;&quot;&gt;Ubidots&lt;/font&gt;" style="rounded=1;whiteSpace=wrap;html=1;" vertex="1" parent="1">
          <mxGeometry x="530" y="120" width="117.5" height="40" as="geometry" />
        </mxCell>
      </root>
    </mxGraphModel>
  </diagram>
</mxfile>
